<mxfile host="app.diagrams.net" modified="2023-05-04T13:58:14.968Z" agent="Mozilla/5.0 (X11; Linux x86_64) AppleWebKit/537.36 (KHTML, like Gecko) Chrome/112.0.0.0 Safari/537.36" version="21.2.7" etag="Y8WixfWCk_5B_MvuuWXU" type="github">
  <diagram name="Page-1" id="NnZJUue6ZStChG4SznpF">
    <mxGraphModel>
      <root>
        <mxCell id="0" />
        <mxCell id="1" parent="0" />
      </root>
    </mxGraphModel>
  </diagram>
</mxfile>
